<?xml version="1.0"?>
<!-- Generated by SVGo -->
<svg width="295.752mm" height="119.538mm"
     viewBox="0.000 0.000 295.752 119.538"
     xmlns="http://www.w3.org/2000/svg" 
     xmlns:xlink="http://www.w3.org/1999/xlink">
<polygon points="290.752,114.538 5.001,114.538 5.001,5.000 290.752,5.000" style="fill:none;stroke-width:0.050000mm;stroke:black"/>
<polygon points="140.876,98.012 140.876,102.712 94.101,102.712 94.101,99.482 87.351,99.482 87.351,102.712 86.526,102.712 86.526,105.512 87.351,105.512 87.351,111.782 89.076,111.782 89.076,112.982 92.376,112.982 92.376,111.782 94.101,111.782 94.101,107.312 140.876,107.312 140.876,112.012 154.876,112.012 154.876,107.312 201.651,107.312 201.651,111.782 203.376,111.782 203.376,112.982 206.676,112.982 206.676,111.782 208.401,111.782 208.401,105.512 209.226,105.512 209.226,102.712 208.401,102.712 208.401,99.482 201.651,99.482 201.651,102.712 154.876,102.712 154.876,98.012" style="fill:none;stroke-width:0.050000mm;stroke:black"/>
<polygon points="245.651,98.012 245.651,112.012 259.650,112.012 259.650,98.012" style="fill:none;stroke-width:0.050000mm;stroke:black"/>
<polygon points="221.838,98.012 221.838,112.012 235.838,112.012 235.838,98.012" style="fill:none;stroke-width:0.050000mm;stroke:black"/>
<polygon points="59.913,98.012 59.913,112.012 73.913,112.012 73.913,98.012" style="fill:none;stroke-width:0.050000mm;stroke:black"/>
<polygon points="36.101,98.012 36.101,112.012 50.101,112.012 50.101,98.012" style="fill:none;stroke-width:0.050000mm;stroke:black"/>
<polygon points="248.032,78.962 248.032,92.962 251.007,92.962 251.007,93.932 254.307,93.932 254.307,92.962 271.557,92.962 271.557,88.262 273.082,88.262 273.082,92.732 274.226,92.732 274.226,92.962 274.807,92.962 274.807,93.932 278.107,93.932 278.107,92.962 288.226,92.962 288.226,78.962 274.226,78.962 274.226,80.432 273.082,80.432 273.082,83.662 271.557,83.662 271.557,78.962" style="fill:none;stroke-width:0.050000mm;stroke:black"/>
<polygon points="9.907,78.962 9.907,92.962 12.882,92.962 12.882,93.932 16.182,93.932 16.182,92.962 36.682,92.962 36.682,93.932 39.982,93.932 39.982,92.962 45.338,92.962 45.338,78.962" style="fill:none;stroke-width:0.050000mm;stroke:black"/>
<polygon points="221.838,78.962 221.838,92.962 235.838,92.962 235.838,78.962" style="fill:none;stroke-width:0.050000mm;stroke:black"/>
<polygon points="202.788,78.962 202.788,92.962 216.788,92.962 216.788,78.962" style="fill:none;stroke-width:0.050000mm;stroke:black"/>
<polygon points="183.738,78.962 183.738,92.962 197.738,92.962 197.738,78.962" style="fill:none;stroke-width:0.050000mm;stroke:black"/>
<polygon points="164.688,78.962 164.688,92.962 178.688,92.962 178.688,78.962" style="fill:none;stroke-width:0.050000mm;stroke:black"/>
<polygon points="145.638,78.962 145.638,92.962 159.638,92.962 159.638,78.962" style="fill:none;stroke-width:0.050000mm;stroke:black"/>
<polygon points="126.588,78.962 126.588,92.962 140.588,92.962 140.588,78.962" style="fill:none;stroke-width:0.050000mm;stroke:black"/>
<polygon points="107.538,78.962 107.538,92.962 121.538,92.962 121.538,78.962" style="fill:none;stroke-width:0.050000mm;stroke:black"/>
<polygon points="88.488,78.962 88.488,92.962 102.488,92.962 102.488,78.962" style="fill:none;stroke-width:0.050000mm;stroke:black"/>
<polygon points="69.438,78.962 69.438,92.962 83.438,92.962 83.438,78.962" style="fill:none;stroke-width:0.050000mm;stroke:black"/>
<polygon points="50.388,78.962 50.388,92.962 64.388,92.962 64.388,78.962" style="fill:none;stroke-width:0.050000mm;stroke:black"/>
<polygon points="269.463,40.862 269.463,54.862 271.844,54.862 271.844,59.912 250.413,59.912 250.413,73.912 255.769,73.912 255.769,74.882 259.068,74.882 259.068,73.912 276.319,73.912 276.319,72.662 277.844,72.662 277.844,73.682 279.569,73.682 279.569,74.882 282.869,74.882 282.869,73.682 284.594,73.682 284.594,67.412 285.419,67.412 285.419,64.611 284.594,64.611 284.594,64.387 285.844,64.387 285.844,50.387 283.463,50.387 283.463,48.862 284.374,48.862 284.374,42.112 283.463,42.112 283.463,40.862" style="fill:none;stroke-width:0.050000mm;stroke:black"/>
<polygon points="231.363,59.912 231.363,73.912 245.363,73.912 245.363,59.912" style="fill:none;stroke-width:0.050000mm;stroke:black"/>
<polygon points="212.313,59.912 212.313,73.912 226.313,73.912 226.313,59.912" style="fill:none;stroke-width:0.050000mm;stroke:black"/>
<polygon points="193.263,59.912 193.263,73.912 207.263,73.912 207.263,59.912" style="fill:none;stroke-width:0.050000mm;stroke:black"/>
<polygon points="174.213,59.912 174.213,73.912 188.213,73.912 188.213,59.912" style="fill:none;stroke-width:0.050000mm;stroke:black"/>
<polygon points="155.163,59.912 155.163,73.912 169.163,73.912 169.163,59.912" style="fill:none;stroke-width:0.050000mm;stroke:black"/>
<polygon points="136.113,59.912 136.113,73.912 150.113,73.912 150.113,59.912" style="fill:none;stroke-width:0.050000mm;stroke:black"/>
<polygon points="117.063,59.912 117.063,73.912 131.063,73.912 131.063,59.912" style="fill:none;stroke-width:0.050000mm;stroke:black"/>
<polygon points="98.013,59.912 98.013,73.912 112.013,73.912 112.013,59.912" style="fill:none;stroke-width:0.050000mm;stroke:black"/>
<polygon points="78.963,59.912 78.963,73.912 92.963,73.912 92.963,59.912" style="fill:none;stroke-width:0.050000mm;stroke:black"/>
<polygon points="59.913,59.912 59.913,73.912 73.913,73.912 73.913,59.912" style="fill:none;stroke-width:0.050000mm;stroke:black"/>
<polygon points="40.863,59.912 40.863,73.912 54.863,73.912 54.863,59.912" style="fill:none;stroke-width:0.050000mm;stroke:black"/>
<polygon points="14.669,59.912 14.669,73.912 28.669,73.912 28.669,59.912" style="fill:none;stroke-width:0.050000mm;stroke:black"/>
<polygon points="276.544,64.611 276.319,64.611 276.319,64.387 276.544,64.387" style="fill:none;stroke-width:0.050000mm;stroke:black"/>
<polygon points="245.651,40.862 245.651,54.862 259.650,54.862 259.650,40.862" style="fill:none;stroke-width:0.050000mm;stroke:black"/>
<polygon points="226.601,40.862 226.601,54.862 240.601,54.862 240.601,40.862" style="fill:none;stroke-width:0.050000mm;stroke:black"/>
<polygon points="207.551,40.862 207.551,54.862 221.551,54.862 221.551,40.862" style="fill:none;stroke-width:0.050000mm;stroke:black"/>
<polygon points="188.501,40.862 188.501,54.862 202.501,54.862 202.501,40.862" style="fill:none;stroke-width:0.050000mm;stroke:black"/>
<polygon points="169.451,40.862 169.451,54.862 183.451,54.862 183.451,40.862" style="fill:none;stroke-width:0.050000mm;stroke:black"/>
<polygon points="150.401,40.862 150.401,54.862 164.401,54.862 164.401,40.862" style="fill:none;stroke-width:0.050000mm;stroke:black"/>
<polygon points="131.351,40.862 131.351,54.862 145.351,54.862 145.351,40.862" style="fill:none;stroke-width:0.050000mm;stroke:black"/>
<polygon points="112.301,40.862 112.301,54.862 126.301,54.862 126.301,40.862" style="fill:none;stroke-width:0.050000mm;stroke:black"/>
<polygon points="93.251,40.862 93.251,54.862 107.251,54.862 107.251,40.862" style="fill:none;stroke-width:0.050000mm;stroke:black"/>
<polygon points="74.201,40.862 74.201,54.862 88.201,54.862 88.201,40.862" style="fill:none;stroke-width:0.050000mm;stroke:black"/>
<polygon points="55.151,40.862 55.151,54.862 69.151,54.862 69.151,40.862" style="fill:none;stroke-width:0.050000mm;stroke:black"/>
<polygon points="36.101,40.862 36.101,54.862 50.101,54.862 50.101,40.862" style="fill:none;stroke-width:0.050000mm;stroke:black"/>
<polygon points="12.288,40.862 12.288,54.862 26.288,54.862 26.288,40.862" style="fill:none;stroke-width:0.050000mm;stroke:black"/>
<polygon points="255.176,21.812 255.176,35.812 258.150,35.812 258.150,36.782 261.451,36.782 261.451,35.812 281.951,35.812 281.951,36.782 285.251,36.782 285.251,35.812 288.226,35.812 288.226,21.812" style="fill:none;stroke-width:0.050000mm;stroke:black"/>
<polygon points="236.126,21.812 236.126,35.812 250.126,35.812 250.126,21.812" style="fill:none;stroke-width:0.050000mm;stroke:black"/>
<polygon points="217.076,21.812 217.076,35.812 231.076,35.812 231.076,21.812" style="fill:none;stroke-width:0.050000mm;stroke:black"/>
<polygon points="198.026,21.812 198.026,35.812 212.026,35.812 212.026,21.812" style="fill:none;stroke-width:0.050000mm;stroke:black"/>
<polygon points="178.976,21.812 178.976,35.812 192.976,35.812 192.976,21.812" style="fill:none;stroke-width:0.050000mm;stroke:black"/>
<polygon points="159.926,21.812 159.926,35.812 173.926,35.812 173.926,21.812" style="fill:none;stroke-width:0.050000mm;stroke:black"/>
<polygon points="140.876,21.812 140.876,35.812 154.876,35.812 154.876,21.812" style="fill:none;stroke-width:0.050000mm;stroke:black"/>
<polygon points="121.825,21.812 121.825,35.812 135.826,35.812 135.826,21.812" style="fill:none;stroke-width:0.050000mm;stroke:black"/>
<polygon points="102.775,21.812 102.775,35.812 116.775,35.812 116.775,21.812" style="fill:none;stroke-width:0.050000mm;stroke:black"/>
<polygon points="83.726,21.812 83.726,35.812 97.726,35.812 97.726,21.812" style="fill:none;stroke-width:0.050000mm;stroke:black"/>
<polygon points="64.676,21.812 64.676,35.812 78.676,35.812 78.676,21.812" style="fill:none;stroke-width:0.050000mm;stroke:black"/>
<polygon points="45.626,21.812 45.626,35.812 59.626,35.812 59.626,21.812" style="fill:none;stroke-width:0.050000mm;stroke:black"/>
<polygon points="26.576,21.812 26.576,35.812 40.576,35.812 40.576,21.812" style="fill:none;stroke-width:0.050000mm;stroke:black"/>
<polygon points="7.526,21.812 7.526,35.812 21.526,35.812 21.526,21.812" style="fill:none;stroke-width:0.050000mm;stroke:black"/>
</svg>
