<?xml version="1.0" encoding="UTF-8" standalone="no"?>
<!-- Generated by SVGo -->

<svg
   xmlns:dc="http://purl.org/dc/elements/1.1/"
   xmlns:cc="http://creativecommons.org/ns#"
   xmlns:rdf="http://www.w3.org/1999/02/22-rdf-syntax-ns#"
   xmlns:svg="http://www.w3.org/2000/svg"
   xmlns="http://www.w3.org/2000/svg"
   xmlns:sodipodi="http://sodipodi.sourceforge.net/DTD/sodipodi-0.dtd"
   xmlns:inkscape="http://www.inkscape.org/namespaces/inkscape"
   width="295.752mm"
   height="119.538mm"
   viewBox="0.000 0.000 295.752 119.538"
   version="1.1"
   id="svg120"
   sodipodi:docname="plate cut out.svg"
   inkscape:version="0.92.3 (2405546, 2018-03-11)">
  <metadata
     id="metadata126">
    <rdf:RDF>
      <cc:Work
         rdf:about="">
        <dc:format>image/svg+xml</dc:format>
        <dc:type
           rdf:resource="http://purl.org/dc/dcmitype/StillImage" />
        <dc:title />
      </cc:Work>
    </rdf:RDF>
  </metadata>
  <defs
     id="defs124" />
  <sodipodi:namedview
     pagecolor="#ffffff"
     bordercolor="#666666"
     borderopacity="1"
     objecttolerance="10"
     gridtolerance="10"
     guidetolerance="10"
     inkscape:pageopacity="0"
     inkscape:pageshadow="2"
     inkscape:window-width="2560"
     inkscape:window-height="1017"
     id="namedview122"
     showgrid="false"
     inkscape:snap-midpoints="false"
     inkscape:snap-object-midpoints="true"
     inkscape:measure-start="0,0"
     inkscape:measure-end="0,0"
     inkscape:object-paths="true"
     inkscape:zoom="1.0127009"
     inkscape:cx="292.62992"
     inkscape:cy="163.4798"
     inkscape:window-x="1920"
     inkscape:window-y="30"
     inkscape:window-maximized="1"
     inkscape:current-layer="svg120" />
  <polygon
     id="polygon870"
     style="fill:none;stroke:#000000;stroke-width:0.05mm"
     points="7.526,21.812 7.526,35.812 21.526,35.812 21.526,21.812 "
     transform="matrix(0.50343788,0,0,1.1458152,7.2130614,-4.2012275)" />
  <polygon
     id="polygon870-3"
     style="fill:none;stroke:#000000;stroke-width:0.05mm"
     points="7.526,35.812 21.526,35.812 21.526,21.812 7.526,21.812 "
     transform="matrix(0.50343788,0,0,1.1458152,26.263061,-4.2012275)" />
  <polygon
     id="polygon870-6"
     style="fill:none;stroke:#000000;stroke-width:0.05mm"
     points="7.526,35.812 21.526,35.812 21.526,21.812 7.526,21.812 "
     transform="matrix(0.50343788,0,0,1.1458152,45.313061,-4.2012275)" />
  <polygon
     id="polygon870-3-7"
     style="fill:none;stroke:#000000;stroke-width:0.05mm"
     points="21.526,35.812 21.526,21.812 7.526,21.812 7.526,35.812 "
     transform="matrix(0.50343788,0,0,1.1458152,64.363061,-4.2012275)" />
  <polygon
     id="polygon870-5"
     style="fill:none;stroke:#000000;stroke-width:0.05mm"
     points="7.526,35.812 21.526,35.812 21.526,21.812 7.526,21.812 "
     transform="matrix(0.50343788,0,0,1.1458152,35.788061,14.848772)" />
  <polygon
     id="polygon870-3-3"
     style="fill:none;stroke:#000000;stroke-width:0.05mm"
     points="21.526,35.812 21.526,21.812 7.526,21.812 7.526,35.812 "
     transform="matrix(0.50343788,0,0,1.1458152,54.838061,14.848772)" />
  <polygon
     id="polygon870-6-5"
     style="fill:none;stroke:#000000;stroke-width:0.05mm"
     points="21.526,35.812 21.526,21.812 7.526,21.812 7.526,35.812 "
     transform="matrix(0.50343788,0,0,1.1458152,73.888062,14.848772)" />
  <polygon
     id="polygon870-3-7-6"
     style="fill:none;stroke:#000000;stroke-width:0.05mm"
     points="21.526,21.812 7.526,21.812 7.526,35.812 21.526,35.812 "
     transform="matrix(0.50343788,0,0,1.1458152,92.938061,14.848772)" />
  <polygon
     id="polygon870-2"
     style="fill:none;stroke:#000000;stroke-width:0.05mm"
     points="7.526,35.812 21.526,35.812 21.526,21.812 7.526,21.812 "
     transform="matrix(0.50343788,0,0,1.1458152,40.550061,33.898772)" />
  <polygon
     id="polygon870-3-9"
     style="fill:none;stroke:#000000;stroke-width:0.05mm"
     points="21.526,35.812 21.526,21.812 7.526,21.812 7.526,35.812 "
     transform="matrix(0.50343788,0,0,1.1458152,59.600061,33.898772)" />
  <polygon
     id="polygon870-6-1"
     style="fill:none;stroke:#000000;stroke-width:0.05mm"
     points="21.526,35.812 21.526,21.812 7.526,21.812 7.526,35.812 "
     transform="matrix(0.50343788,0,0,1.1458152,78.650062,33.898772)" />
  <polygon
     id="polygon870-3-7-2"
     style="fill:none;stroke:#000000;stroke-width:0.05mm"
     points="21.526,21.812 7.526,21.812 7.526,35.812 21.526,35.812 "
     transform="matrix(0.50343788,0,0,1.1458152,97.700061,33.898772)" />
  <polygon
     id="polygon870-60"
     style="fill:none;stroke:#000000;stroke-width:0.05mm"
     points="7.526,35.812 21.526,35.812 21.526,21.812 7.526,21.812 "
     transform="matrix(0.50343788,0,0,1.1458152,116.75006,33.898772)" />
  <polygon
     id="polygon870-3-6"
     style="fill:none;stroke:#000000;stroke-width:0.05mm"
     points="21.526,35.812 21.526,21.812 7.526,21.812 7.526,35.812 "
     transform="matrix(0.50343788,0,0,1.1458152,135.80006,33.898772)" />
  <polygon
     id="polygon870-6-2"
     style="fill:none;stroke:#000000;stroke-width:0.05mm"
     points="21.526,35.812 21.526,21.812 7.526,21.812 7.526,35.812 "
     transform="matrix(0.50343788,0,0,1.1458152,154.85006,33.898772)" />
  <polygon
     id="polygon870-3-7-61"
     style="fill:none;stroke:#000000;stroke-width:0.05mm"
     points="21.526,21.812 7.526,21.812 7.526,35.812 21.526,35.812 "
     transform="matrix(0.50343788,0,0,1.1458152,173.90006,33.898772)" />
  <polygon
     id="polygon870-8"
     style="fill:none;stroke:#000000;stroke-width:0.12976434;stroke-miterlimit:4;stroke-dasharray:none"
     points="21.526,21.812 7.526,21.812 7.526,35.812 21.526,35.812 "
     transform="matrix(1.8513916,0,0,1.1458152,-0.55063839,52.948772)" />
  <polygon
     id="polygon870-3-79"
     style="fill:none;stroke:#000000;stroke-width:0.05mm"
     points="21.526,35.812 21.526,21.812 7.526,21.812 7.526,35.812 "
     transform="matrix(0.50343788,0,0,1.1458152,69.125061,52.948772)" />
  <polygon
     id="polygon870-6-20"
     style="fill:none;stroke:#000000;stroke-width:0.05mm"
     points="21.526,35.812 21.526,21.812 7.526,21.812 7.526,35.812 "
     transform="matrix(0.50343788,0,0,1.1458152,88.175062,52.948772)" />
  <polygon
     id="polygon870-3-7-23"
     style="fill:none;stroke:#000000;stroke-width:0.05mm"
     points="21.526,21.812 7.526,21.812 7.526,35.812 21.526,35.812 "
     transform="matrix(0.50343788,0,0,1.1458152,107.22506,52.948772)" />
  <polygon
     id="polygon870-7"
     style="fill:none;stroke:#000000;stroke-width:0.05mm"
     points="7.526,35.812 21.526,35.812 21.526,21.812 7.526,21.812 "
     transform="matrix(0.50343788,0,0,1.1458152,126.27506,52.948772)" />
  <polygon
     id="polygon870-3-5"
     style="fill:none;stroke:#000000;stroke-width:0.05mm"
     points="21.526,35.812 21.526,21.812 7.526,21.812 7.526,35.812 "
     transform="matrix(0.50343788,0,0,1.1458152,145.32506,52.948772)" />
  <polygon
     id="polygon870-6-9"
     style="fill:none;stroke:#000000;stroke-width:0.05mm"
     points="21.526,35.812 21.526,21.812 7.526,21.812 7.526,35.812 "
     transform="matrix(0.50343788,0,0,1.1458152,164.37506,52.948772)" />
  <polygon
     id="polygon870-3-7-22"
     style="fill:none;stroke:#000000;stroke-width:0.05mm"
     points="21.526,21.812 7.526,21.812 7.526,35.812 21.526,35.812 "
     transform="matrix(0.50343788,0,0,1.1458152,183.42506,52.948772)" />
  <polygon
     id="polygon870-89"
     style="fill:none;stroke:#000000;stroke-width:0.05mm"
     points="7.526,35.812 21.526,35.812 21.526,21.812 7.526,21.812 "
     transform="matrix(0.50343788,0,0,1.1458152,202.47507,52.948772)" />
  <polygon
     id="polygon870-3-73"
     style="fill:none;stroke:#000000;stroke-width:0.05mm"
     points="21.526,35.812 21.526,21.812 7.526,21.812 7.526,35.812 "
     transform="matrix(0.50343788,0,0,1.1458152,221.52506,52.948772)" />
  <polygon
     id="polygon870-29"
     style="fill:none;stroke:#000000;stroke-width:0.05mm"
     points="7.526,35.812 21.526,35.812 21.526,21.812 7.526,21.812 "
     transform="matrix(0.50343788,0,0,1.1458152,192.95006,33.898772)" />
  <polygon
     id="polygon870-3-31"
     style="fill:none;stroke:#000000;stroke-width:0.05mm"
     points="21.526,35.812 21.526,21.812 7.526,21.812 7.526,35.812 "
     transform="matrix(0.50343788,0,0,1.1458152,212.00006,33.898772)" />
  <polygon
     id="polygon870-6-94"
     style="fill:none;stroke:#000000;stroke-width:0.05mm"
     points="21.526,35.812 21.526,21.812 7.526,21.812 7.526,35.812 "
     transform="matrix(0.50343788,0,0,1.1458152,231.05006,33.898772)" />
  <polygon
     id="polygon870-84"
     style="fill:none;stroke:#000000;stroke-width:0.05mm"
     points="7.526,35.812 21.526,35.812 21.526,21.812 7.526,21.812 "
     transform="matrix(0.50343788,0,0,1.1458152,111.98806,14.848772)" />
  <polygon
     id="polygon870-3-50"
     style="fill:none;stroke:#000000;stroke-width:0.05mm"
     points="21.526,35.812 21.526,21.812 7.526,21.812 7.526,35.812 "
     transform="matrix(0.50343788,0,0,1.1458152,131.03806,14.848772)" />
  <polygon
     id="polygon870-6-3"
     style="fill:none;stroke:#000000;stroke-width:0.05mm"
     points="21.526,35.812 21.526,21.812 7.526,21.812 7.526,35.812 "
     transform="matrix(0.50343788,0,0,1.1458152,150.08806,14.848772)" />
  <polygon
     id="polygon870-3-7-610"
     style="fill:none;stroke:#000000;stroke-width:0.05mm"
     points="21.526,21.812 7.526,21.812 7.526,35.812 21.526,35.812 "
     transform="matrix(0.50343788,0,0,1.1458152,169.13806,14.848772)" />
  <polygon
     id="polygon870-63"
     style="fill:none;stroke:#000000;stroke-width:0.05mm"
     points="7.526,35.812 21.526,35.812 21.526,21.812 7.526,21.812 "
     transform="matrix(0.50343788,0,0,1.1458152,188.18806,14.848772)" />
  <polygon
     id="polygon870-3-2"
     style="fill:none;stroke:#000000;stroke-width:0.05mm"
     points="21.526,35.812 21.526,21.812 7.526,21.812 7.526,35.812 "
     transform="matrix(0.50343788,0,0,1.1458152,207.23806,14.848772)" />
  <polygon
     id="polygon870-6-0"
     style="fill:none;stroke:#000000;stroke-width:0.05mm"
     points="21.526,35.812 21.526,21.812 7.526,21.812 7.526,35.812 "
     transform="matrix(0.50343788,0,0,1.1458152,226.28806,14.848772)" />
  <polygon
     id="polygon870-3-7-615"
     style="fill:none;stroke:#000000;stroke-width:0.05mm"
     points="21.526,21.812 7.526,21.812 7.526,35.812 21.526,35.812 "
     transform="matrix(0.50343788,0,0,1.1458152,245.33806,14.848772)" />
  <polygon
     id="polygon870-54"
     style="fill:none;stroke:#000000;stroke-width:0.05mm"
     points="7.526,35.812 21.526,35.812 21.526,21.812 7.526,21.812 "
     transform="matrix(0.50343788,0,0,1.1458152,83.412062,-4.2012275)" />
  <polygon
     id="polygon870-3-76"
     style="fill:none;stroke:#000000;stroke-width:0.05mm"
     points="21.526,35.812 21.526,21.812 7.526,21.812 7.526,35.812 "
     transform="matrix(0.50343788,0,0,1.1458152,102.46206,-4.2012275)" />
  <polygon
     id="polygon870-6-56"
     style="fill:none;stroke:#000000;stroke-width:0.05mm"
     points="21.526,35.812 21.526,21.812 7.526,21.812 7.526,35.812 "
     transform="matrix(0.50343788,0,0,1.1458152,121.51206,-4.2012275)" />
  <polygon
     id="polygon870-3-7-9"
     style="fill:none;stroke:#000000;stroke-width:0.05mm"
     points="21.526,21.812 7.526,21.812 7.526,35.812 21.526,35.812 "
     transform="matrix(0.50343788,0,0,1.1458152,140.56206,-4.2012275)" />
  <polygon
     id="polygon870-37"
     style="fill:none;stroke:#000000;stroke-width:0.05mm"
     points="7.526,35.812 21.526,35.812 21.526,21.812 7.526,21.812 "
     transform="matrix(0.50343788,0,0,1.1458152,159.61306,-4.2012275)" />
  <polygon
     id="polygon870-3-4"
     style="fill:none;stroke:#000000;stroke-width:0.05mm"
     points="21.526,35.812 21.526,21.812 7.526,21.812 7.526,35.812 "
     transform="matrix(0.50343788,0,0,1.1458152,178.66306,-4.2012275)" />
  <polygon
     id="polygon870-6-52"
     style="fill:none;stroke:#000000;stroke-width:0.05mm"
     points="21.526,35.812 21.526,21.812 7.526,21.812 7.526,35.812 "
     transform="matrix(0.50343788,0,0,1.1458152,197.71307,-4.2012275)" />
  <polygon
     id="polygon870-3-7-5"
     style="fill:none;stroke:#000000;stroke-width:0.05mm"
     points="21.526,21.812 7.526,21.812 7.526,35.812 21.526,35.812 "
     transform="matrix(0.50343788,0,0,1.1458152,216.76306,-4.2012275)" />
  <polygon
     id="polygon870-3-7-5-0"
     style="fill:none;stroke:#000000;stroke-width:0.05mm"
     points="7.526,21.812 7.526,35.812 21.526,35.812 21.526,21.812 "
     transform="matrix(0.50343788,0,0,1.1458152,235.81306,-4.2012275)" />
  <polygon
     id="polygon870-3-7-5-0-7"
     style="fill:none;stroke:#000000;stroke-width:0.05mm"
     points="7.526,35.812 21.526,35.812 21.526,21.812 7.526,21.812 "
     transform="matrix(0.50343788,0,0,1.1458152,140.56305,71.998966)" />
  <polygon
     id="polygon870-3-7-5-0-8"
     style="fill:none;stroke:#000000;stroke-width:0.05mm"
     points="7.526,35.812 21.526,35.812 21.526,21.812 7.526,21.812 "
     transform="matrix(0.50343788,0,0,1.1458152,221.52506,71.998772)" />
  <polygon
     id="polygon870-3-7-5-0-6"
     style="fill:none;stroke:#000000;stroke-width:0.05mm"
     points="7.526,35.812 21.526,35.812 21.526,21.812 7.526,21.812 "
     transform="matrix(0.50343788,0,0,1.1458152,245.33756,71.998772)" />
  <polygon
     id="polygon870-3-7-5-0-88"
     style="fill:none;stroke:#000000;stroke-width:0.05mm"
     points="7.526,35.812 21.526,35.812 21.526,21.812 7.526,21.812 "
     transform="matrix(0.50343788,0,0,1.1458152,59.600061,71.998772)" />
  <polygon
     id="polygon870-3-7-5-0-4"
     style="fill:none;stroke:#000000;stroke-width:0.05mm"
     points="7.526,35.812 21.526,35.812 21.526,21.812 7.526,21.812 "
     transform="matrix(0.50343788,0,0,1.1458152,35.788061,71.998772)" />
  <polygon
     id="polygon870-3-7-5-0-3"
     style="fill:none;stroke:#000000;stroke-width:0.05mm"
     points="7.526,35.812 21.526,35.812 21.526,21.812 7.526,21.812 "
     transform="matrix(0.50343788,0,0,1.1458152,14.356061,33.898772)" />
  <polygon
     id="polygon870-3-7-5-0-1"
     style="fill:none;stroke:#000000;stroke-width:0.05mm"
     points="7.526,35.812 21.526,35.812 21.526,21.812 7.526,21.812 "
     transform="matrix(0.50343788,0,0,1.1458152,11.975061,14.848772)" />
  <polygon
     id="polygon870-8-8"
     style="fill:none;stroke:#000000;stroke-width:0.05mm"
     points="21.526,21.812 7.526,21.812 7.526,35.812 21.526,35.812 "
     transform="matrix(0.50343788,0,0,1.1458152,50.075061,52.948772)" />
  <polygon
     id="polygon870-3-73-5"
     style="fill:none;stroke:#000000;stroke-width:0.11458403;stroke-miterlimit:4;stroke-dasharray:none"
     points="7.526,35.812 21.526,35.812 21.526,21.812 7.526,21.812 "
     transform="matrix(2.374438,0,0,1.1458152,233.63805,52.948542)" />
  <path
     style="fill:none;stroke:#000000;stroke-width:0.14352837mm"
     d="M 1021.752 203.57617 L 1021.752 222.58203 L 979.57617 222.58203 L 979.57617 283.21094 L 1059.334 283.21094 L 1059.334 230.21484 L 1082.3809 230.21484 L 1082.3809 203.57617 L 1021.752 203.57617 z "
     transform="scale(0.26458333)"
     id="polygon870-3-73-4" />
  <polygon
     id="polygon870-3-7-5-0-72"
     style="fill:none;stroke:#000000;stroke-width:0.05mm"
     points="21.526,35.812 21.526,21.812 7.526,21.812 7.526,35.812 "
     transform="matrix(1.8641522,0,0,1.1458152,244.62232,-4.2012275)" />
</svg>
