<?xml version="1.0" encoding="UTF-8" standalone="no"?>
<!-- Generated by SVGo -->

<svg
   xmlns:dc="http://purl.org/dc/elements/1.1/"
   xmlns:cc="http://creativecommons.org/ns#"
   xmlns:rdf="http://www.w3.org/1999/02/22-rdf-syntax-ns#"
   xmlns:svg="http://www.w3.org/2000/svg"
   xmlns="http://www.w3.org/2000/svg"
   xmlns:sodipodi="http://sodipodi.sourceforge.net/DTD/sodipodi-0.dtd"
   xmlns:inkscape="http://www.inkscape.org/namespaces/inkscape"
   width="295.752mm"
   height="119.538mm"
   viewBox="0.000 0.000 295.752 119.538"
   version="1.1"
   id="svg120"
   sodipodi:docname="plate.svg"
   inkscape:version="0.92.3 (2405546, 2018-03-11)">
  <metadata
     id="metadata126">
    <rdf:RDF>
      <cc:Work
         rdf:about="">
        <dc:format>image/svg+xml</dc:format>
        <dc:type
           rdf:resource="http://purl.org/dc/dcmitype/StillImage" />
        <dc:title></dc:title>
      </cc:Work>
    </rdf:RDF>
  </metadata>
  <defs
     id="defs124" />
  <sodipodi:namedview
     pagecolor="#ffffff"
     bordercolor="#666666"
     borderopacity="1"
     objecttolerance="10"
     gridtolerance="10"
     guidetolerance="10"
     inkscape:pageopacity="0"
     inkscape:pageshadow="2"
     inkscape:window-width="2560"
     inkscape:window-height="1017"
     id="namedview122"
     showgrid="false"
     inkscape:snap-midpoints="false"
     inkscape:snap-object-midpoints="true"
     inkscape:measure-start="0,0"
     inkscape:measure-end="0,0"
     inkscape:object-paths="true"
     inkscape:zoom="1.4321754"
     inkscape:cx="662.80371"
     inkscape:cy="204.11063"
     inkscape:window-x="1920"
     inkscape:window-y="30"
     inkscape:window-maximized="1"
     inkscape:current-layer="svg120" />
  <path
     style="fill:none;stroke:#000000;stroke-width:0.68730128;stroke-miterlimit:4;stroke-dasharray:none"
     d="M 17.037109 71.03125 L 17.037109 359.03125 L 125.03711 359.03125 L 125.03711 434.76172 L 992.76172 434.76172 L 992.76172 359.03125 L 1100.7656 359.03125 L 1100.7656 71.03125 L 17.037109 71.03125 z "
     transform="scale(0.26458333)"
     id="polygon2" />
  <polygon
     points="245.651,98.012 245.651,112.012 259.650,112.012 259.650,98.012"
     style="fill:none;stroke-width:0.050000mm;stroke:black"
     id="polygon6" />
  <polygon
     points="221.838,98.012 221.838,112.012 235.838,112.012 235.838,98.012"
     style="fill:none;stroke-width:0.050000mm;stroke:black"
     id="polygon8" />
  <polygon
     points="59.913,98.012 59.913,112.012 73.913,112.012 73.913,98.012"
     style="fill:none;stroke-width:0.050000mm;stroke:black"
     id="polygon10" />
  <polygon
     points="36.101,98.012 36.101,112.012 50.101,112.012 50.101,98.012"
     style="fill:none;stroke-width:0.050000mm;stroke:black"
     id="polygon12" />
  <path
     style="fill:none;stroke:#000000;stroke-width:0.18897638mm"
     d="M 937.44336 294.37109 L 937.44336 298.43945 L 937.44336 351.35156 L 937.44336 357.16016 L 937.76367 357.16016 L 943.25195 357.16016 L 972.08594 357.16016 L 972.08594 351.35156 L 1026.3574 351.35156 L 1027.7148 351.35156 L 1027.7148 352.47266 L 1027.7148 357.16016 L 1062.0371 357.16016 L 1062.0371 351.35156 L 1089.3574 351.35156 L 1089.3574 298.43945 L 1062.0371 298.43945 L 1062.0371 294.37109 L 1032.1211 294.37109 L 1027.7148 294.37109 L 1027.7148 298.43945 L 1026.3574 298.43945 L 972.08594 298.43945 L 972.08594 294.37109 L 943.25195 294.37109 L 937.76367 294.37109 L 937.44336 294.37109 z "
     transform="scale(0.26458333)"
     id="polygon14" />
  <path
     style="fill:none;stroke:#000000;stroke-width:0.18897638mm"
     d="M 37.443359 294.37109 L 37.443359 298.43945 L 37.443359 300.17969 L 37.443359 351.35156 L 37.443359 357.16016 L 37.763672 357.16016 L 72.085938 357.16016 L 72.085938 351.35156 L 127.71484 351.35156 L 127.71484 352.47266 L 127.71484 357.16016 L 162.03906 357.16016 L 162.03906 351.35156 L 171.35547 351.35156 L 171.35547 298.43945 L 162.03711 298.43945 L 162.03711 294.37109 L 132.12109 294.37109 L 127.71484 294.37109 L 127.71484 298.43945 L 72.085938 298.43945 L 72.085938 294.37109 L 37.763672 294.37109 L 37.443359 294.37109 z "
     transform="scale(0.26458333)"
     id="polygon16" />
  <polygon
     points="221.838,78.962 221.838,92.962 235.838,92.962 235.838,78.962"
     style="fill:none;stroke-width:0.050000mm;stroke:black"
     id="polygon18" />
  <polygon
     points="202.788,78.962 202.788,92.962 216.788,92.962 216.788,78.962"
     style="fill:none;stroke-width:0.050000mm;stroke:black"
     id="polygon20" />
  <polygon
     points="183.738,78.962 183.738,92.962 197.738,92.962 197.738,78.962"
     style="fill:none;stroke-width:0.050000mm;stroke:black"
     id="polygon22" />
  <polygon
     points="164.688,78.962 164.688,92.962 178.688,92.962 178.688,78.962"
     style="fill:none;stroke-width:0.050000mm;stroke:black"
     id="polygon24" />
  <polygon
     points="145.638,78.962 145.638,92.962 159.638,92.962 159.638,78.962"
     style="fill:none;stroke-width:0.050000mm;stroke:black"
     id="polygon26" />
  <polygon
     points="126.588,78.962 126.588,92.962 140.588,92.962 140.588,78.962"
     style="fill:none;stroke-width:0.050000mm;stroke:black"
     id="polygon28" />
  <polygon
     points="107.538,78.962 107.538,92.962 121.538,92.962 121.538,78.962"
     style="fill:none;stroke-width:0.050000mm;stroke:black"
     id="polygon30" />
  <polygon
     points="88.488,78.962 88.488,92.962 102.488,92.962 102.488,78.962"
     style="fill:none;stroke-width:0.050000mm;stroke:black"
     id="polygon32" />
  <polygon
     points="69.438,78.962 69.438,92.962 83.438,92.962 83.438,78.962"
     style="fill:none;stroke-width:0.050000mm;stroke:black"
     id="polygon34" />
  <polygon
     points="50.388,78.962 50.388,92.962 64.388,92.962 64.388,78.962"
     style="fill:none;stroke-width:0.050000mm;stroke:black"
     id="polygon36" />
  <path
     style="fill:none;stroke:#000000;stroke-width:0.18897638mm"
     d="M 1018.4434 154.43945 L 1018.4434 207.35156 L 1026.5723 207.35156 L 1026.5723 226.43945 L 990.08008 226.43945 L 990.08008 222.37109 L 960.16211 222.37109 L 955.75781 222.37109 L 955.75781 226.43945 L 946.44336 226.43945 L 946.44336 279.35156 L 955.75781 279.35156 L 955.75781 280.47266 L 955.75781 285.16016 L 990.08008 285.16016 L 990.08008 279.35156 L 1026.5723 279.35156 L 1044.3555 279.35156 L 1045.7129 279.35156 L 1045.7129 279.60352 L 1045.7129 284.29102 L 1080.0352 284.29102 L 1080.0352 279.0332 L 1085.293 279.0332 L 1085.293 255.63672 L 1085.293 251.23047 L 1085.293 244.71094 L 1080.6055 244.71094 L 1080.3555 244.71094 L 1080.3555 243.35156 L 1080.3555 190.43945 L 1080.3555 189.08008 L 1085.293 189.08008 L 1085.293 154.43945 L 1018.4434 154.43945 z "
     transform="scale(0.26458333)"
     id="polygon38" />
  <polygon
     points="231.363,59.912 231.363,73.912 245.363,73.912 245.363,59.912"
     style="fill:none;stroke-width:0.050000mm;stroke:black"
     id="polygon40" />
  <polygon
     points="212.313,59.912 212.313,73.912 226.313,73.912 226.313,59.912"
     style="fill:none;stroke-width:0.050000mm;stroke:black"
     id="polygon42" />
  <polygon
     points="193.263,59.912 193.263,73.912 207.263,73.912 207.263,59.912"
     style="fill:none;stroke-width:0.050000mm;stroke:black"
     id="polygon44" />
  <polygon
     points="174.213,59.912 174.213,73.912 188.213,73.912 188.213,59.912"
     style="fill:none;stroke-width:0.050000mm;stroke:black"
     id="polygon46" />
  <polygon
     points="155.163,59.912 155.163,73.912 169.163,73.912 169.163,59.912"
     style="fill:none;stroke-width:0.050000mm;stroke:black"
     id="polygon48" />
  <polygon
     points="136.113,59.912 136.113,73.912 150.113,73.912 150.113,59.912"
     style="fill:none;stroke-width:0.050000mm;stroke:black"
     id="polygon50" />
  <polygon
     points="117.063,59.912 117.063,73.912 131.063,73.912 131.063,59.912"
     style="fill:none;stroke-width:0.050000mm;stroke:black"
     id="polygon52" />
  <polygon
     points="98.013,59.912 98.013,73.912 112.013,73.912 112.013,59.912"
     style="fill:none;stroke-width:0.050000mm;stroke:black"
     id="polygon54" />
  <polygon
     points="78.963,59.912 78.963,73.912 92.963,73.912 92.963,59.912"
     style="fill:none;stroke-width:0.050000mm;stroke:black"
     id="polygon56" />
  <polygon
     points="59.913,59.912 59.913,73.912 73.913,73.912 73.913,59.912"
     style="fill:none;stroke-width:0.050000mm;stroke:black"
     id="polygon58" />
  <polygon
     points="40.863,59.912 40.863,73.912 54.863,73.912 54.863,59.912"
     style="fill:none;stroke-width:0.050000mm;stroke:black"
     id="polygon60" />
  <polygon
     points="14.669,59.912 14.669,73.912 28.669,73.912 28.669,59.912"
     style="fill:none;stroke-width:0.050000mm;stroke:black"
     id="polygon62" />
  <polygon
     points="245.651,40.862 245.651,54.862 259.650,54.862 259.650,40.862"
     style="fill:none;stroke-width:0.050000mm;stroke:black"
     id="polygon66" />
  <polygon
     points="226.601,40.862 226.601,54.862 240.601,54.862 240.601,40.862"
     style="fill:none;stroke-width:0.050000mm;stroke:black"
     id="polygon68" />
  <polygon
     points="207.551,40.862 207.551,54.862 221.551,54.862 221.551,40.862"
     style="fill:none;stroke-width:0.050000mm;stroke:black"
     id="polygon70" />
  <polygon
     points="188.501,40.862 188.501,54.862 202.501,54.862 202.501,40.862"
     style="fill:none;stroke-width:0.050000mm;stroke:black"
     id="polygon72" />
  <polygon
     points="169.451,40.862 169.451,54.862 183.451,54.862 183.451,40.862"
     style="fill:none;stroke-width:0.050000mm;stroke:black"
     id="polygon74" />
  <polygon
     points="150.401,40.862 150.401,54.862 164.401,54.862 164.401,40.862"
     style="fill:none;stroke-width:0.050000mm;stroke:black"
     id="polygon76" />
  <polygon
     points="131.351,40.862 131.351,54.862 145.351,54.862 145.351,40.862"
     style="fill:none;stroke-width:0.050000mm;stroke:black"
     id="polygon78" />
  <polygon
     points="112.301,40.862 112.301,54.862 126.301,54.862 126.301,40.862"
     style="fill:none;stroke-width:0.050000mm;stroke:black"
     id="polygon80" />
  <polygon
     points="93.251,40.862 93.251,54.862 107.251,54.862 107.251,40.862"
     style="fill:none;stroke-width:0.050000mm;stroke:black"
     id="polygon82" />
  <polygon
     points="74.201,40.862 74.201,54.862 88.201,54.862 88.201,40.862"
     style="fill:none;stroke-width:0.050000mm;stroke:black"
     id="polygon84" />
  <polygon
     points="55.151,40.862 55.151,54.862 69.151,54.862 69.151,40.862"
     style="fill:none;stroke-width:0.050000mm;stroke:black"
     id="polygon86" />
  <polygon
     points="36.101,40.862 36.101,54.862 50.101,54.862 50.101,40.862"
     style="fill:none;stroke-width:0.050000mm;stroke:black"
     id="polygon88" />
  <polygon
     points="12.288,40.862 12.288,54.862 26.288,54.862 26.288,40.862"
     style="fill:none;stroke-width:0.050000mm;stroke:black"
     id="polygon90" />
  <path
     style="fill:none;stroke:#000000;stroke-width:0.18897638mm"
     d="M 964.44531 78.371094 L 964.44531 82.439453 L 964.44531 135.35156 L 964.44531 141.16016 L 964.76367 141.16016 L 970.25391 141.16016 L 999.08594 141.16016 L 999.08594 135.35156 L 1054.7168 135.35156 L 1054.7168 136.47266 L 1054.7168 141.16016 L 1083.5488 141.16016 L 1089.0391 141.16016 L 1089.3574 141.16016 L 1089.3574 135.35156 L 1089.3574 82.439453 L 1089.3574 78.371094 L 1089.0391 78.371094 L 1083.5488 78.371094 L 1059.1211 78.371094 L 1054.7168 78.371094 L 1054.7168 82.439453 L 999.08594 82.439453 L 999.08594 78.371094 L 970.25391 78.371094 L 964.76367 78.371094 L 964.44531 78.371094 z "
     transform="scale(0.26458333)"
     id="polygon92" />
  <polygon
     points="236.126,21.812 236.126,35.812 250.126,35.812 250.126,21.812"
     style="fill:none;stroke-width:0.050000mm;stroke:black"
     id="polygon94" />
  <polygon
     points="217.076,21.812 217.076,35.812 231.076,35.812 231.076,21.812"
     style="fill:none;stroke-width:0.050000mm;stroke:black"
     id="polygon96" />
  <polygon
     points="198.026,21.812 198.026,35.812 212.026,35.812 212.026,21.812"
     style="fill:none;stroke-width:0.050000mm;stroke:black"
     id="polygon98" />
  <polygon
     points="178.976,21.812 178.976,35.812 192.976,35.812 192.976,21.812"
     style="fill:none;stroke-width:0.050000mm;stroke:black"
     id="polygon100" />
  <polygon
     points="159.926,21.812 159.926,35.812 173.926,35.812 173.926,21.812"
     style="fill:none;stroke-width:0.050000mm;stroke:black"
     id="polygon102" />
  <polygon
     points="140.876,21.812 140.876,35.812 154.876,35.812 154.876,21.812"
     style="fill:none;stroke-width:0.050000mm;stroke:black"
     id="polygon104" />
  <polygon
     points="121.825,21.812 121.825,35.812 135.826,35.812 135.826,21.812"
     style="fill:none;stroke-width:0.050000mm;stroke:black"
     id="polygon106" />
  <polygon
     points="102.775,21.812 102.775,35.812 116.775,35.812 116.775,21.812"
     style="fill:none;stroke-width:0.050000mm;stroke:black"
     id="polygon108" />
  <polygon
     points="83.726,21.812 83.726,35.812 97.726,35.812 97.726,21.812"
     style="fill:none;stroke-width:0.050000mm;stroke:black"
     id="polygon110" />
  <polygon
     points="64.676,21.812 64.676,35.812 78.676,35.812 78.676,21.812"
     style="fill:none;stroke-width:0.050000mm;stroke:black"
     id="polygon112" />
  <polygon
     points="45.626,21.812 45.626,35.812 59.626,35.812 59.626,21.812"
     style="fill:none;stroke-width:0.050000mm;stroke:black"
     id="polygon114" />
  <polygon
     points="26.576,21.812 26.576,35.812 40.576,35.812 40.576,21.812"
     style="fill:none;stroke-width:0.18891249;stroke:black;stroke-miterlimit:4;stroke-dasharray:none"
     id="polygon116" />
  <polygon
     points="7.526,21.812 7.526,35.812 21.526,35.812 21.526,21.812"
     style="fill:none;stroke-width:0.050000mm;stroke:black"
     id="polygon118" />
  <path
     style="fill:none;stroke:#000000;stroke-width:0.71433073;stroke-miterlimit:4;stroke-dasharray:none;stroke-opacity:1"
     d="M 325.74023 365.50195 L 325.74023 371.30859 L 325.74023 423.60352 L 325.74023 428.29102 L 360.0625 428.29102 L 360.0625 423.35156 L 360.0625 405.58789 L 360.0625 388.20312 L 360.0625 365.50195 L 330.14453 365.50195 L 325.74023 365.50195 z M 757.74023 365.50195 L 757.74023 370.1875 L 757.74023 388.20312 L 757.74023 405.58789 L 757.74023 423.35156 L 757.74023 423.60352 L 757.74023 428.29102 L 787.6582 428.29102 L 792.0625 428.29102 L 792.0625 422.48242 L 792.0625 417.79688 L 792.0625 370.1875 L 792.0625 365.50195 L 757.74023 365.50195 z M 532.44531 370.43945 L 532.44531 388.20312 L 532.44531 405.58789 L 532.44531 423.35156 L 585.35742 423.35156 L 585.35742 405.58789 L 585.35742 388.20312 L 585.35742 370.43945 L 532.44531 370.43945 z "
     transform="scale(0.26458333)"
     id="rect1019" />
  <rect
     style="fill:none;stroke:#000000;stroke-width:0.18900001;stroke-miterlimit:4;stroke-dasharray:none;stroke-opacity:1"
     id="rect1432"
     width="296.73651"
     height="115.05818"
     x="-0.49226475"
     y="4.9725189" />
</svg>
